<svg width="420" height="116" viewBox="0 0 420 116" fill="none" xmlns="http://www.w3.org/2000/svg">

<style>
/* 1. Criamos a animação (surge do transparente e sobe um pouquinho) */
@keyframes surgirLetra {
  0% {
    opacity: 0;
    transform: translateY(15px);
  }
  100% {
    opacity: 1;
    transform: translateY(0);
  }
}

/* 2. Aplicamos a animação base para todos os IDs */
#D, #A, #V, #Y, #D2, #E, #ponto, #S, #I, #L, #V2, #A2 {
  opacity: 0; /* Começam invisíveis */
  animation: surgirLetra 0.6s cubic-bezier(0.2, 0.8, 0.2, 1) forwards;
  transform-box: fill-box; /* Garante que o eixo Y seja calculado na própria letra */
}

/* 3. Criamos o "atraso" (delay) para o efeito cascata */
#D     { animation-delay: 0.2s; }
#A     { animation-delay: 0.3s; }
#V     { animation-delay: 0.4s; }
#Y     { animation-delay: 0.5s; }
#D2    { animation-delay: 0.6s; }
#E     { animation-delay: 0.8s; } /* Pulei 0.6s para dar um respiro no espaço */
#ponto { animation-delay: 1.0s; }
#S     { animation-delay: 1.1s; } /* Respiro para o sobrenome */
#I     { animation-delay: 1.2s; }
#L     { animation-delay: 1.3s; }
#V2    { animation-delay: 1.4s; }
#A2    { animation-delay: 1.5s; }

</style>

<g id="davyd">
<g id="Davyd E. Silva">
<path id="A2" d="M390.414 72.192C389.433 72.192 388.558 71.9147 387.79 71.36C387.065 70.8053 386.702 69.6747 386.702 67.968C386.702 67.2427 386.745 66.56 386.83 65.92C386.958 65.28 387.107 64.5973 387.278 63.872C386.894 64.512 386.361 65.3013 385.678 66.24C384.995 67.1787 384.227 68.096 383.374 68.992C382.563 69.888 381.71 70.6347 380.814 71.232C379.961 71.8293 379.15 72.128 378.382 72.128C377.273 72.128 376.377 71.6373 375.694 70.656C375.011 69.632 374.67 68.3093 374.67 66.688C374.67 64.9387 375.075 63.0613 375.886 61.056C376.697 59.0507 377.806 57.1307 379.214 55.296C380.622 53.4613 382.243 51.968 384.078 50.816C385.913 49.664 387.833 49.088 389.838 49.088C390.819 49.088 391.758 49.2587 392.654 49.6C393.55 49.8987 394.339 50.4107 395.022 51.136C395.321 51.4347 395.47 51.776 395.47 52.16C395.47 52.416 395.363 52.6293 395.15 52.8C394.937 52.9707 394.659 53.0133 394.318 52.928C393.849 51.4347 392.846 50.688 391.31 50.688C390.585 50.688 389.753 50.9227 388.814 51.392C387.662 51.9893 386.425 52.9493 385.102 54.272C383.822 55.552 382.606 57.024 381.454 58.688C380.345 60.3093 379.427 61.952 378.702 63.616C377.977 65.28 377.614 66.7947 377.614 68.16C377.614 69.568 378.147 70.272 379.214 70.272C380.153 70.272 381.113 69.824 382.094 68.928C383.118 68.032 384.078 66.9227 384.974 65.6C385.913 64.2347 386.766 62.8907 387.534 61.568C388.302 60.2453 388.899 59.1787 389.326 58.368C389.966 57.216 390.563 56.256 391.118 55.488C391.673 54.72 392.462 54.336 393.486 54.336C393.955 54.336 394.425 54.4 394.894 54.528C395.363 54.656 395.854 54.6773 396.366 54.592C395.086 55.872 393.955 57.3867 392.974 59.136C392.035 60.8853 391.31 62.6133 390.798 64.32C390.286 65.984 390.03 67.392 390.03 68.544C390.03 69.824 390.457 70.464 391.31 70.464C391.993 70.464 392.718 70.08 393.486 69.312C394.297 68.544 395.065 67.584 395.79 66.432C396.558 65.2373 397.262 64.0427 397.902 62.848C398.542 61.6107 399.054 60.544 399.438 59.648C399.651 59.648 399.822 59.6693 399.95 59.712C400.121 59.7547 400.206 59.9253 400.206 60.224C400.163 60.3947 400.078 60.5867 399.95 60.8C399.865 60.9707 399.715 61.2907 399.502 61.76C399.161 62.4427 398.691 63.36 398.094 64.512C397.497 65.664 396.793 66.8373 395.982 68.032C395.171 69.184 394.297 70.1653 393.358 70.976C392.419 71.7867 391.438 72.192 390.414 72.192Z" fill="#F0F0F0"/>
<path id="V2" d="M358.888 72.448C357.565 72.448 356.648 72.1066 356.136 71.424C355.624 70.7413 355.368 69.8666 355.368 68.8C355.368 67.6906 355.56 66.432 355.944 65.024C356.328 63.616 356.84 62.0373 357.48 60.288C357.011 60.288 356.776 60.0746 356.776 59.648C357.117 58.7946 357.48 57.8346 357.864 56.768C358.291 55.6586 358.504 54.4213 358.504 53.056C358.504 52.3733 358.419 51.7973 358.248 51.328C358.077 50.8586 357.821 50.5813 357.48 50.496C357.48 50.496 357.693 50.4533 358.12 50.368C358.589 50.2826 359.08 50.1973 359.592 50.112C360.104 50.0266 360.445 49.984 360.616 49.984C360.872 49.9413 361.107 49.92 361.32 49.92C361.533 49.8773 361.725 49.856 361.896 49.856C362.323 49.856 362.6 50.0266 362.728 50.368C362.899 50.7093 362.963 51.456 362.92 52.608C362.877 53.6746 362.664 54.976 362.28 56.512C361.896 58.0053 361.491 59.3066 361.064 60.416C360.509 61.8666 359.997 63.3386 359.528 64.832C359.059 66.3253 358.824 67.5626 358.824 68.544C358.824 69.3973 359.059 69.952 359.528 70.208C359.869 70.336 360.168 70.4 360.424 70.4C361.405 70.4 362.365 69.9306 363.304 68.992C364.243 68.0533 365.117 66.9226 365.928 65.6C366.781 64.2346 367.485 62.9333 368.04 61.696C367.784 60.7146 367.656 59.5413 367.656 58.176C367.656 56.7253 367.827 55.2533 368.168 53.76C368.509 52.2666 369.043 51.0293 369.768 50.048C370.493 49.024 371.432 48.512 372.584 48.512C373.395 48.512 373.8 48.8746 373.8 49.6C373.8 49.7706 373.587 50.496 373.16 51.776C372.776 53.056 372.264 54.5706 371.624 56.32C370.984 58.0693 370.301 59.7546 369.576 61.376C369.405 61.7173 369.256 62.0586 369.128 62.4C369.299 63.1253 369.619 63.7226 370.088 64.192C370.557 64.6186 371.133 64.832 371.816 64.832C372.669 64.832 373.459 64.448 374.184 63.68C374.952 62.8693 375.741 61.5253 376.552 59.648C377.064 59.648 377.32 59.84 377.32 60.224C376.637 61.9306 375.805 63.296 374.824 64.32C373.885 65.344 372.819 65.856 371.624 65.856C370.173 65.856 369.128 65.1093 368.488 63.616C367.763 65.1093 366.909 66.5386 365.928 67.904C364.947 69.2266 363.859 70.3146 362.664 71.168C361.512 72.0213 360.253 72.448 358.888 72.448Z" fill="#F0F0F0"/>
<path id="L" d="M346.159 72.192C344.58 72.192 343.407 71.7227 342.639 70.784C341.914 69.8027 341.551 68.6507 341.551 67.328C341.551 65.9627 341.743 64.5547 342.127 63.104C342.511 61.6534 342.852 60.4374 343.151 59.456C343.834 57.0667 344.687 54.528 345.711 51.84C346.778 49.1093 347.93 46.4427 349.167 43.84C350.447 41.1947 351.706 38.8267 352.943 36.736C353.924 35.072 354.97 33.8347 356.079 33.024C357.231 32.1707 358.234 31.744 359.087 31.744C359.77 31.744 360.303 32 360.687 32.512C361.114 32.9814 361.327 33.7067 361.327 34.688C361.327 35.3707 361.199 36.1814 360.943 37.12C360.73 38.0587 360.346 39.1254 359.791 40.32C358.298 43.648 356.506 46.976 354.415 50.304C352.367 53.632 349.764 56.7467 346.607 59.648C346.095 60.8427 345.668 62.1227 345.327 63.488C344.986 64.8534 344.815 65.9627 344.815 66.816C344.815 69.4614 345.711 70.784 347.503 70.784C348.868 70.784 350.383 69.8027 352.047 67.84C353.711 65.8347 355.29 63.104 356.783 59.648C356.954 59.648 357.124 59.6907 357.295 59.776C357.466 59.8187 357.551 59.968 357.551 60.224C357.082 61.376 356.484 62.656 355.759 64.064C355.076 65.4294 354.266 66.7307 353.327 67.968C352.431 69.2054 351.386 70.2294 350.191 71.04C348.996 71.808 347.652 72.192 346.159 72.192ZM347.119 57.6C348.655 56.0214 350.148 54.208 351.599 52.16C353.05 50.0694 354.394 47.9147 355.631 45.696C356.911 43.4347 357.978 41.3014 358.831 39.296C359.13 38.656 359.364 37.952 359.535 37.184C359.748 36.416 359.855 35.776 359.855 35.264C359.855 34.6667 359.706 34.368 359.407 34.368C359.236 34.368 358.98 34.5387 358.639 34.88C358.298 35.1787 357.85 35.712 357.295 36.48C356.484 37.5467 355.588 38.9974 354.607 40.832C353.668 42.6667 352.708 44.6294 351.727 46.72C350.746 48.8107 349.85 50.8374 349.039 52.8C348.228 54.72 347.588 56.32 347.119 57.6Z" fill="#F0F0F0"/>
<path id="I" d="M333.693 72C332.114 72 331.005 71.552 330.365 70.656C329.725 69.7173 329.405 68.6506 329.405 67.456C329.405 66.816 329.469 66.176 329.597 65.536C329.768 64.8533 329.96 64.2346 330.173 63.68L334.461 52.736C334.589 52.3946 334.653 52.096 334.653 51.84C334.653 51.4133 334.546 51.0506 334.333 50.752C334.12 50.4106 333.97 50.176 333.885 50.048L337.405 49.92C338.045 49.8773 338.493 49.9626 338.749 50.176C339.048 50.3466 339.197 50.56 339.197 50.816C339.197 51.072 339.048 51.5413 338.749 52.224C338.322 53.248 337.746 54.528 337.021 56.064C336.296 57.6 335.57 59.1786 334.845 60.8C334.162 62.4213 333.565 63.936 333.053 65.344C332.584 66.752 332.349 67.84 332.349 68.608C332.349 69.1626 332.477 69.632 332.733 70.016C333.032 70.4 333.522 70.592 334.205 70.592C335.101 70.592 335.976 70.2506 336.829 69.568C337.725 68.8426 338.557 67.9253 339.325 66.816C340.093 65.7066 340.797 64.512 341.437 63.232C342.12 61.952 342.696 60.7573 343.165 59.648C343.677 59.648 343.933 59.84 343.933 60.224C343.506 61.2906 342.952 62.5066 342.269 63.872C341.586 65.2373 340.797 66.5386 339.901 67.776C339.048 68.9706 338.088 69.9733 337.021 70.784C335.997 71.5946 334.888 72 333.693 72ZM339.389 45.952C338.834 45.952 338.344 45.7386 337.917 45.312C337.533 44.8853 337.341 44.3733 337.341 43.776C337.341 43.0506 337.64 42.4106 338.237 41.856C338.834 41.2586 339.496 40.96 340.221 40.96C340.818 40.96 341.33 41.152 341.757 41.536C342.184 41.92 342.397 42.4106 342.397 43.008C342.397 43.776 342.098 44.4586 341.501 45.056C340.904 45.6533 340.2 45.952 339.389 45.952Z" fill="#F0F0F0"/>
<path id="S" d="M294.745 77.888C290.563 77.888 286.723 77.2693 283.224 76.032C279.768 74.7946 276.974 72.9813 274.841 70.5919C272.707 68.1599 271.534 65.1733 271.321 61.632C271.235 60.1813 271.47 58.5813 272.025 56.832C272.579 55.0826 273.347 53.3546 274.329 51.6479C275.353 49.8986 276.547 48.3413 277.913 46.9759C279.321 45.5679 280.814 44.5013 282.392 43.7759C282.52 43.6906 282.713 43.6266 282.969 43.5839C283.267 43.5413 283.48 43.5199 283.608 43.5199C283.864 43.5199 283.992 43.5839 283.992 43.7119C283.992 43.9253 283.673 44.2666 283.033 44.7359C281.241 46.1439 279.769 47.7653 278.617 49.5999C277.422 51.4346 276.526 53.3973 275.929 55.4879C275.331 57.5786 275.033 59.6906 275.033 61.8239C275.033 64.3413 275.566 66.5173 276.633 68.352C277.742 70.144 279.214 71.616 281.048 72.768C282.883 73.9626 284.974 74.8373 287.321 75.3919C289.667 75.9466 292.121 76.2239 294.681 76.2239C297.539 76.2239 300.355 75.904 303.129 75.264C305.945 74.624 308.505 73.7066 310.809 72.512C314.35 70.6346 317.145 68.3093 319.193 65.5359C321.283 62.7626 322.328 60.0106 322.328 57.2799C322.328 55.8293 322.009 54.4426 321.369 53.1199C320.771 51.7973 319.79 50.6026 318.425 49.5359C317.401 48.7253 316.142 47.9573 314.649 47.2319C313.198 46.5066 311.641 45.8026 309.977 45.1199C308.355 44.4373 306.755 43.7546 305.177 43.0719C303.598 42.3466 302.211 41.5786 301.017 40.7679C299.31 39.6159 298.051 38.3786 297.241 37.056C296.473 35.7333 296.089 34.4106 296.089 33.0879C296.089 31.5093 296.537 29.9733 297.433 28.4799C298.371 26.9866 299.63 25.6426 301.209 24.4479C302.83 23.2106 304.643 22.2506 306.649 21.5679C308.398 20.9706 310.297 20.5013 312.345 20.1599C314.435 19.8186 316.483 19.6479 318.489 19.6479C320.153 19.6479 321.731 19.7759 323.224 20.0319C324.76 20.2453 326.105 20.6506 327.257 21.2479C328.707 21.9306 329.817 22.8479 330.585 23.9999C331.353 25.1093 331.737 26.2826 331.737 27.5199C331.737 29.2266 330.969 30.7199 329.433 32C328.878 32.4266 328.259 32.8319 327.577 33.216C326.894 33.5573 326.083 33.8559 325.145 34.1119C324.974 34.1546 324.782 34.1759 324.569 34.1759C324.057 34.1759 323.801 34.0266 323.801 33.7279C323.801 33.5573 323.929 33.3866 324.185 33.216C324.483 33.0026 324.91 32.8746 325.465 32.8319C326.745 32.6613 327.705 32.1706 328.345 31.3599C329.027 30.5493 329.369 29.6106 329.369 28.5439C329.369 27.4346 328.984 26.3466 328.216 25.2799C327.491 24.1706 326.361 23.2533 324.825 22.5279C323.289 21.7599 321.326 21.3759 318.937 21.3759C317.571 21.3759 316.057 21.5253 314.393 21.8239C312.771 22.1226 311.001 22.6133 309.081 23.2959C306.734 24.1066 304.771 25.3013 303.193 26.8799C301.657 28.4586 300.888 30.1439 300.888 31.9359C300.888 33.0453 301.251 34.1759 301.977 35.3279C302.745 36.4373 303.961 37.5039 305.625 38.528C307.033 39.3813 308.633 40.2346 310.425 41.0879C312.217 41.8986 314.03 42.7306 315.865 43.5839C317.699 44.3946 319.363 45.2693 320.857 46.2079C323.203 47.6586 324.889 49.2159 325.913 50.8799C326.937 52.5439 327.448 54.2506 327.448 56C327.448 58.048 326.83 60.1173 325.593 62.208C324.398 64.256 322.819 66.1973 320.857 68.032C318.894 69.824 316.739 71.424 314.393 72.832C311.662 74.4533 308.568 75.6906 305.112 76.5439C301.699 77.4399 298.243 77.888 294.745 77.888Z" fill="#F0F0F0"/>
<path id="ponto" d="M251.034 72.9599C250.351 72.9599 249.797 72.7466 249.37 72.32C248.943 71.8933 248.73 71.36 248.73 70.72C248.73 69.8666 249.05 69.1413 249.69 68.5439C250.373 67.9466 251.098 67.6479 251.866 67.6479C252.549 67.6479 253.103 67.8613 253.53 68.2879C253.957 68.6719 254.17 69.184 254.17 69.824C254.17 70.6346 253.85 71.36 253.21 72C252.57 72.64 251.845 72.9599 251.034 72.9599Z" fill="#F0F0F0"/>
<path id="E" d="M213.927 75.7759C209.489 75.7759 205.82 75.1573 202.919 73.9199C200.06 72.6826 197.927 71.0613 196.519 69.0559C195.153 67.0506 194.471 64.9173 194.471 62.6559C194.471 60.0959 195.132 57.7706 196.455 55.6799C197.777 53.5893 199.505 51.7759 201.639 50.2399C203.815 48.7039 206.204 47.4879 208.807 46.5919C211.409 45.6959 213.969 45.1839 216.487 45.0559C214.268 44.2453 212.455 43.1359 211.047 41.7279C209.681 40.2773 208.999 38.6986 208.999 36.9919C208.999 35.2426 209.532 33.5786 210.599 31.9999C211.708 30.3786 213.18 28.9066 215.015 27.5839C216.849 26.2186 218.919 25.0453 221.223 24.0639C223.569 23.0826 226.001 22.3359 228.519 21.8239C231.036 21.2693 233.468 20.9919 235.815 20.9919C239.612 20.9919 242.641 21.6319 244.903 22.9119C247.164 24.1919 248.295 25.8346 248.295 27.8399C248.295 29.6746 247.292 31.4879 245.287 33.2799C243.324 35.0719 240.593 36.3519 237.095 37.1199C236.412 37.2479 235.964 37.3119 235.751 37.3119C235.281 37.3119 235.047 37.1199 235.047 36.7359C235.047 36.6079 235.111 36.5226 235.239 36.4799C235.409 36.3946 235.751 36.2666 236.263 36.0959C238.78 35.2426 240.785 34.0479 242.279 32.5119C243.772 30.9333 244.519 29.2693 244.519 27.5199C244.519 26.0266 243.793 24.8319 242.343 23.9359C240.935 22.9973 238.801 22.5279 235.943 22.5279C233.383 22.5279 230.801 22.8906 228.199 23.6159C225.596 24.3413 223.207 25.3653 221.031 26.6879C218.855 28.0106 217.105 29.5253 215.783 31.2319C214.46 32.9386 213.799 34.7946 213.799 36.7999C213.799 38.2506 214.225 39.4239 215.079 40.3199C215.932 41.2159 217.02 41.9413 218.343 42.4959C219.665 43.0079 221.031 43.4346 222.439 43.7759C223.889 44.0746 225.212 44.4159 226.407 44.7999C226.833 44.9279 227.111 45.0986 227.239 45.3119C227.367 45.5253 227.431 45.7386 227.431 45.9519C227.431 46.5066 227.111 46.9759 226.471 47.3599C225.873 47.7439 225.02 47.9359 223.911 47.9359C223.228 47.9359 222.46 47.9359 221.607 47.9359C220.796 47.8933 219.921 47.8719 218.983 47.8719C217.66 47.8719 216.252 47.9359 214.759 48.0639C213.308 48.1919 211.708 48.5333 209.959 49.0879C207.74 49.7706 205.799 50.8373 204.135 52.2879C202.513 53.7386 201.255 55.3386 200.359 57.0879C199.463 58.8373 199.015 60.5653 199.015 62.2719C199.015 64.4906 199.527 66.4959 200.551 68.2879C201.575 70.0799 203.196 71.4879 205.415 72.5119C207.633 73.5786 210.556 74.1119 214.183 74.1119C217.511 74.1119 220.732 73.6853 223.847 72.8319C226.961 71.9786 229.841 70.8906 232.487 69.5679C235.132 68.2026 237.393 66.7946 239.271 65.3439C240.807 64.1066 242.044 62.8479 242.983 61.5679C243.964 60.2879 244.455 59.1786 244.455 58.2399C244.455 57.0453 243.623 56.3199 241.959 56.0639C241.532 56.0213 241.319 55.8933 241.319 55.6799C241.319 55.3386 241.617 55.1679 242.215 55.1679C243.452 55.1679 244.54 55.5946 245.479 56.4479C246.46 57.2586 246.951 58.2826 246.951 59.5199C246.951 61.9519 245.223 64.5119 241.767 67.1999C239.676 68.8639 237.116 70.3359 234.087 71.6159C231.1 72.8959 227.857 73.8986 224.359 74.6239C220.903 75.3919 217.425 75.7759 213.927 75.7759Z" fill="#F0F0F0"/>
<path id="D2" d="M176.745 72C175.294 72 174.227 71.5094 173.545 70.528C172.862 69.5467 172.521 68.3947 172.521 67.072C172.521 66.688 172.542 66.304 172.585 65.92C172.627 65.4934 172.713 65.0667 172.841 64.64C172.243 65.5787 171.539 66.624 170.729 67.776C169.961 68.8854 169.065 69.8667 168.041 70.72C167.059 71.5307 165.95 71.936 164.713 71.936C164.158 71.936 163.518 71.808 162.793 71.552C162.11 71.296 161.491 70.8054 160.937 70.08C160.425 69.3547 160.169 68.288 160.169 66.88C160.169 65.0454 160.574 63.104 161.385 61.056C162.195 59.008 163.305 57.088 164.713 55.296C166.121 53.4613 167.721 51.9893 169.513 50.88C171.305 49.728 173.161 49.152 175.081 49.152C176.617 49.152 178.067 49.5573 179.433 50.368C180.073 49.1733 180.755 47.8507 181.481 46.4C182.206 44.9067 182.931 43.4347 183.657 41.984C184.382 40.5334 185.022 39.2107 185.577 38.016C186.131 36.7787 186.558 35.84 186.857 35.2C187.497 33.7067 188.094 32.768 188.649 32.384C189.246 31.9574 189.95 31.744 190.761 31.744C191.23 31.744 191.742 31.808 192.297 31.936C192.894 32.0214 193.47 32.0427 194.025 32C193.811 32.2134 193.321 32.9174 192.553 34.112C191.785 35.3067 190.846 36.864 189.737 38.784C188.627 40.6614 187.433 42.7307 186.153 44.992C184.915 47.2534 183.678 49.5787 182.441 51.968C181.246 54.3147 180.137 56.576 179.113 58.752C178.089 60.928 177.278 62.848 176.681 64.512C176.083 66.176 175.785 67.4347 175.785 68.288C175.785 68.8427 175.913 69.3334 176.169 69.76C176.425 70.144 176.851 70.336 177.449 70.336C178.259 70.336 179.091 69.9307 179.945 69.12C180.798 68.3094 181.609 67.3067 182.377 66.112C183.187 64.8747 183.891 63.68 184.489 62.528C185.129 61.3334 185.598 60.3734 185.897 59.648C186.409 59.648 186.665 59.84 186.665 60.224C186.281 61.12 185.769 62.2294 185.129 63.552C184.489 64.8747 183.742 66.176 182.889 67.456C182.035 68.736 181.075 69.824 180.009 70.72C178.985 71.5734 177.897 72 176.745 72ZM165.161 70.08C165.758 70.08 166.505 69.76 167.401 69.12C168.297 68.4374 169.257 67.3707 170.281 65.92C171.475 64.2134 172.841 62.08 174.377 59.52C175.913 56.96 177.427 54.2507 178.921 51.392C178.622 51.136 178.302 50.944 177.961 50.816C177.619 50.688 177.15 50.624 176.553 50.624C175.571 50.624 174.483 51.0507 173.289 51.904C172.137 52.7147 170.963 53.7814 169.769 55.104C168.617 56.4267 167.55 57.856 166.569 59.392C165.63 60.928 164.862 62.4214 164.265 63.872C163.71 65.28 163.433 66.496 163.433 67.52C163.433 69.2267 164.009 70.08 165.161 70.08Z" fill="#F0F0F0"/>
<path id="Y" d="M128.881 92.416C126.663 92.416 125.084 91.968 124.145 91.072C123.207 90.2186 122.737 89.1946 122.737 88C122.737 86.1653 123.42 84.4586 124.785 82.88C126.108 81.344 127.751 80.1066 129.713 79.168C131.932 78.144 134.449 77.312 137.265 76.672C140.124 76.032 142.855 75.328 145.457 74.56C146.268 73.152 147.015 71.552 147.697 69.76C148.38 67.9253 148.999 66.1546 149.553 64.448C150.108 62.6986 150.556 61.2693 150.897 60.16C150.385 61.0986 149.724 62.2506 148.913 63.616C148.145 64.9386 147.271 66.24 146.289 67.52C145.308 68.8 144.241 69.8666 143.089 70.72C141.98 71.5733 140.807 72 139.569 72C139.1 72 138.524 71.8933 137.841 71.68C137.201 71.4666 136.625 71.0826 136.113 70.528C135.644 69.9306 135.409 69.056 135.409 67.904C135.409 66.7946 135.751 65.5786 136.433 64.256C137.116 62.8906 137.799 61.5466 138.481 60.224C138.268 60.224 138.076 60.2026 137.905 60.16C137.777 60.1173 137.713 59.9466 137.713 59.648C137.841 59.392 138.097 58.8373 138.481 57.984C138.865 57.1306 139.292 56.192 139.761 55.168C140.273 54.144 140.721 53.248 141.105 52.48C141.575 51.4986 142.087 50.816 142.641 50.432C143.239 50.048 143.815 49.856 144.369 49.856H148.337C148.039 50.112 147.655 50.4106 147.185 50.752C146.759 51.0506 146.353 51.52 145.969 52.16C144.817 54.1226 143.815 56.0213 142.961 57.856C142.108 59.648 141.191 61.568 140.209 63.616C139.74 64.5973 139.399 65.4933 139.185 66.304C138.972 67.1146 138.865 67.8186 138.865 68.416C138.865 69.824 139.335 70.528 140.273 70.528C141.297 70.528 142.535 69.696 143.985 68.032C145.18 66.624 146.375 64.96 147.569 63.04C148.807 61.0773 149.98 59.072 151.089 57.024C152.241 54.9333 153.244 53.0133 154.097 51.264C154.567 50.3253 155.399 49.856 156.593 49.856H160.113C158.876 50.7093 157.916 51.8186 157.233 53.184C156.593 54.5493 155.868 56.2986 155.057 58.432C154.161 60.7786 153.308 63.2106 152.497 65.728C151.687 68.2453 150.791 70.8266 149.809 73.472C151.9 72.7466 153.649 71.808 155.057 70.656C156.465 69.504 157.703 68.032 158.769 66.24C159.879 64.4053 160.988 62.208 162.097 59.648C162.609 59.648 162.865 59.84 162.865 60.224C161.927 62.1866 161.073 63.9146 160.305 65.408C159.537 66.9013 158.684 68.224 157.745 69.376C156.807 70.4853 155.633 71.5093 154.225 72.448C152.817 73.4293 151.004 74.368 148.785 75.264C147.761 77.0986 146.588 78.9973 145.265 80.96C143.985 82.9653 142.513 84.8213 140.849 86.528C139.228 88.2773 137.415 89.6853 135.409 90.752C133.447 91.8613 131.271 92.416 128.881 92.416ZM127.345 91.136C128.753 91.136 130.204 90.7093 131.697 89.856C133.191 89.0026 134.641 87.9146 136.049 86.592C137.457 85.312 138.737 83.9893 139.889 82.624C141.084 81.3013 142.044 80.128 142.769 79.104C142.983 78.8053 143.217 78.4213 143.473 77.952C143.729 77.4826 143.985 77.0346 144.241 76.608C142.151 77.1626 139.847 77.76 137.329 78.4C134.855 79.0826 132.7 79.8293 130.865 80.64C128.817 81.4933 127.217 82.7093 126.065 84.288C124.871 85.8666 124.273 87.2746 124.273 88.512C124.273 89.28 124.529 89.8986 125.041 90.368C125.511 90.88 126.279 91.136 127.345 91.136Z" fill="#F0F0F0"/>
<path id="V" d="M120.075 72.448C118.753 72.448 117.835 72.1066 117.323 71.424C116.811 70.7413 116.555 69.8666 116.555 68.8C116.555 67.6906 116.747 66.432 117.131 65.024C117.515 63.616 118.027 62.0373 118.667 60.288C118.198 60.288 117.963 60.0746 117.963 59.648C118.305 58.7946 118.667 57.8346 119.051 56.768C119.478 55.6586 119.691 54.4213 119.691 53.056C119.691 52.3733 119.606 51.7973 119.435 51.328C119.265 50.8586 119.009 50.5813 118.667 50.496C118.667 50.496 118.881 50.4533 119.307 50.368C119.777 50.2826 120.267 50.1973 120.779 50.112C121.291 50.0266 121.633 49.984 121.803 49.984C122.059 49.9413 122.294 49.92 122.507 49.92C122.721 49.8773 122.913 49.856 123.083 49.856C123.51 49.856 123.787 50.0266 123.915 50.368C124.086 50.7093 124.15 51.456 124.107 52.608C124.065 53.6746 123.851 54.976 123.467 56.512C123.083 58.0053 122.678 59.3066 122.251 60.416C121.697 61.8666 121.185 63.3386 120.715 64.832C120.246 66.3253 120.011 67.5626 120.011 68.544C120.011 69.3973 120.246 69.952 120.715 70.208C121.057 70.336 121.355 70.4 121.611 70.4C122.593 70.4 123.553 69.9306 124.491 68.992C125.43 68.0533 126.305 66.9226 127.115 65.6C127.969 64.2346 128.673 62.9333 129.227 61.696C128.971 60.7146 128.843 59.5413 128.843 58.176C128.843 56.7253 129.014 55.2533 129.355 53.76C129.697 52.2666 130.23 51.0293 130.955 50.048C131.681 49.024 132.619 48.512 133.771 48.512C134.582 48.512 134.987 48.8746 134.987 49.6C134.987 49.7706 134.774 50.496 134.347 51.776C133.963 53.056 133.451 54.5706 132.811 56.32C132.171 58.0693 131.489 59.7546 130.763 61.376C130.593 61.7173 130.443 62.0586 130.315 62.4C130.486 63.1253 130.806 63.7226 131.275 64.192C131.745 64.6186 132.321 64.832 133.003 64.832C133.857 64.832 134.646 64.448 135.371 63.68C136.139 62.8693 136.929 61.5253 137.739 59.648C138.251 59.648 138.507 59.84 138.507 60.224C137.825 61.9306 136.993 63.296 136.011 64.32C135.073 65.344 134.006 65.856 132.811 65.856C131.361 65.856 130.315 65.1093 129.675 63.616C128.95 65.1093 128.097 66.5386 127.115 67.904C126.134 69.2266 125.046 70.3146 123.851 71.168C122.699 72.0213 121.441 72.448 120.075 72.448Z" fill="#F0F0F0"/>
<path id="A" d="M108.914 72.192C107.933 72.192 107.058 71.9147 106.29 71.36C105.565 70.8053 105.202 69.6747 105.202 67.968C105.202 67.2427 105.245 66.56 105.33 65.92C105.458 65.28 105.607 64.5973 105.778 63.872C105.394 64.512 104.861 65.3013 104.178 66.24C103.495 67.1787 102.727 68.096 101.874 68.992C101.063 69.888 100.21 70.6347 99.314 71.232C98.4607 71.8293 97.65 72.128 96.882 72.128C95.7727 72.128 94.8767 71.6373 94.194 70.656C93.5113 69.632 93.17 68.3093 93.17 66.688C93.17 64.9387 93.5753 63.0613 94.386 61.056C95.1967 59.0507 96.306 57.1307 97.714 55.296C99.122 53.4613 100.743 51.968 102.578 50.816C104.413 49.664 106.333 49.088 108.338 49.088C109.319 49.088 110.258 49.2587 111.154 49.6C112.05 49.8987 112.839 50.4107 113.522 51.136C113.821 51.4347 113.97 51.776 113.97 52.16C113.97 52.416 113.863 52.6293 113.65 52.8C113.437 52.9707 113.159 53.0133 112.818 52.928C112.349 51.4347 111.346 50.688 109.81 50.688C109.085 50.688 108.253 50.9227 107.314 51.392C106.162 51.9893 104.925 52.9493 103.602 54.272C102.322 55.552 101.106 57.024 99.954 58.688C98.8447 60.3093 97.9273 61.952 97.202 63.616C96.4767 65.28 96.114 66.7947 96.114 68.16C96.114 69.568 96.6473 70.272 97.714 70.272C98.6526 70.272 99.6127 69.824 100.594 68.928C101.618 68.032 102.578 66.9227 103.474 65.6C104.413 64.2347 105.266 62.8907 106.034 61.568C106.802 60.2453 107.399 59.1787 107.826 58.368C108.466 57.216 109.063 56.256 109.618 55.488C110.173 54.72 110.962 54.336 111.986 54.336C112.455 54.336 112.925 54.4 113.394 54.528C113.863 54.656 114.354 54.6773 114.866 54.592C113.586 55.872 112.455 57.3867 111.474 59.136C110.535 60.8853 109.81 62.6133 109.298 64.32C108.786 65.984 108.53 67.392 108.53 68.544C108.53 69.824 108.957 70.464 109.81 70.464C110.493 70.464 111.218 70.08 111.986 69.312C112.797 68.544 113.565 67.584 114.29 66.432C115.058 65.2373 115.762 64.0427 116.402 62.848C117.042 61.6107 117.554 60.544 117.938 59.648C118.151 59.648 118.322 59.6693 118.45 59.712C118.621 59.7547 118.706 59.9253 118.706 60.224C118.663 60.3947 118.578 60.5867 118.45 60.8C118.365 60.9707 118.215 61.2907 118.002 61.76C117.661 62.4427 117.191 63.36 116.594 64.512C115.997 65.664 115.293 66.8373 114.482 68.032C113.671 69.184 112.797 70.1653 111.858 70.976C110.919 71.7867 109.938 72.192 108.914 72.192Z" fill="#F0F0F0"/>
<path id="D" d="M35.8565 74.752C34.1072 74.752 32.4432 74.496 30.8645 73.984C29.2859 73.472 27.9845 72.704 26.9605 71.68C25.9792 70.656 25.4885 69.376 25.4885 67.84C25.4885 66.2613 26.1712 64.832 27.5365 63.552C28.9445 62.272 30.9285 61.632 33.4885 61.632C36.1765 61.632 38.7152 62.2507 41.1045 63.488C43.5365 64.6827 46.0965 65.984 48.7845 67.392C51.0459 65.216 53.0512 62.6987 54.8005 59.84C56.5925 56.9387 58.2992 53.888 59.9205 50.688C61.5845 47.488 63.2912 44.3093 65.0405 41.152C66.7899 37.952 68.7525 34.9867 70.9285 32.256C71.3125 31.7867 71.6965 31.3173 72.0805 30.848C72.4645 30.336 72.8699 29.8453 73.2965 29.376C70.9925 28.0107 68.5179 26.9653 65.8725 26.24C63.2272 25.472 60.4965 25.088 57.6805 25.088C54.1819 25.088 50.9392 25.536 47.9525 26.432C44.9659 27.328 42.3632 28.544 40.1445 30.08C37.9685 31.5733 36.2619 33.28 35.0245 35.2C33.7872 37.0773 33.1685 39.0187 33.1685 41.024C33.1685 42.816 33.5312 44.3093 34.2565 45.504C35.0245 46.656 35.9845 47.5093 37.1365 48.064C38.2885 48.6187 39.4192 48.896 40.5285 48.896C42.0219 48.896 43.3019 48.6187 44.3685 48.064C45.4352 47.4667 46.3099 46.7413 46.9925 45.888C47.6752 45.0347 48.1872 44.2027 48.5285 43.392C48.8699 42.5813 49.0619 41.92 49.1045 41.408C49.1045 41.1093 49.2965 40.96 49.6805 40.96C50.2779 40.96 50.5125 41.3227 50.3845 42.048C50.1712 43.7547 49.5312 45.248 48.4645 46.528C47.3979 47.7653 46.1179 48.7467 44.6245 49.472C43.1312 50.1547 41.5952 50.496 40.0165 50.496C38.1392 50.496 36.4325 50.1547 34.8965 49.472C33.3605 48.7467 32.1232 47.68 31.1845 46.272C30.2885 44.8213 29.8405 43.0507 29.8405 40.96C29.8405 38.1867 30.5872 35.712 32.0805 33.536C33.5739 31.3173 35.6219 29.44 38.2245 27.904C40.8272 26.368 43.8139 25.1947 47.1845 24.384C50.5552 23.5733 54.1179 23.168 57.8725 23.168C60.7739 23.168 63.6965 23.5307 66.6405 24.256C69.5845 24.9387 72.3792 25.984 75.0245 27.392C76.1339 26.1547 77.2645 25.0667 78.4165 24.128C79.6112 23.1467 80.8272 22.4 82.0645 21.888C82.6192 21.6747 83.0672 21.568 83.4085 21.568C83.6645 21.568 83.7925 21.632 83.7925 21.76C83.7925 21.9733 83.3019 22.5067 82.3205 23.36C81.7659 23.872 81.1045 24.6613 80.3365 25.728C79.5685 26.752 78.7792 27.8827 77.9685 29.12C80.5285 30.784 82.7899 32.8107 84.7525 35.2C86.7579 37.5467 88.3365 40.2347 89.4885 43.264C90.6405 46.2507 91.2165 49.5787 91.2165 53.248C91.2165 56.832 90.5979 59.968 89.3605 62.656C88.1232 65.3013 86.4379 67.4987 84.3045 69.248C82.1712 70.9973 79.7179 72.2987 76.9445 73.152C74.1712 74.048 71.2485 74.496 68.1765 74.496C64.5499 74.496 61.1792 74.0053 58.0645 73.024C54.9925 72.0427 52.1339 70.9333 49.4885 69.696C47.3979 71.36 45.2219 72.6187 42.9605 73.472C40.7419 74.3253 38.3739 74.752 35.8565 74.752ZM73.6165 35.968C72.7205 37.376 71.6325 39.168 70.3525 41.344C69.0725 43.4773 67.6432 45.8027 66.0645 48.32C64.4859 50.8373 62.8432 53.3547 61.1365 55.872C59.4299 58.3893 57.7019 60.7573 55.9525 62.976C54.2459 65.152 52.5819 66.9867 50.9605 68.48C53.2219 69.5893 55.7179 70.5493 58.4485 71.36C61.1792 72.1707 64.2725 72.576 67.7285 72.576C71.6539 72.576 75.0672 71.7653 77.9685 70.144C80.8699 68.48 83.1312 66.24 84.7525 63.424C86.3739 60.5653 87.1845 57.344 87.1845 53.76C87.1845 49.1093 86.2032 44.8853 84.2405 41.088C82.2779 37.248 79.6539 34.048 76.3685 31.488C75.8139 32.384 75.3019 33.2373 74.8325 34.048C74.3632 34.816 73.9579 35.456 73.6165 35.968ZM35.8565 72.768C38.0325 72.896 40.1445 72.512 42.1925 71.616C44.2832 70.6773 46.0112 69.6747 47.3765 68.608C44.8165 67.3707 42.4485 66.24 40.2725 65.216C38.1392 64.192 36.1552 63.68 34.3205 63.68C32.8272 63.68 31.6752 64.128 30.8645 65.024C30.0539 65.8773 29.6485 66.8373 29.6485 67.904C29.6485 69.2693 30.1819 70.4 31.2485 71.296C32.3579 72.192 33.8939 72.6827 35.8565 72.768Z" fill="#F0F0F0"/>
</g>
</g>
</svg>
